  0
SECTION
  2
HEADER
  9
$ACADVER
  1
AC1009
  0
ENDSEC
  0
SECTION
  2
TABLES
  0
TABLE
  2
LAYER
  70
2
  0
LAYER
  2
Layer_2
  70
0
  62
1
  6
CONTINUOUS
  0
LAYER
  2
Layer_0
  70
0
  62
7
  6
CONTINUOUS
  0
ENDTAB
  0
ENDSEC
  0
SECTION
  2
ENTITIES
  0
POLYLINE
  5
90
  8
Layer_0
  62
7
  70
1
  66
1
  10
0
  20
0
  30
0
  0
VERTEX
  5
90
  8
Layer_0
  10
5736
  20
2777
  0
VERTEX
  5
91
  8
Layer_0
  10
5706
  20
2777
  0
VERTEX
  5
92
  8
Layer_0
  10
5706
  20
2774.5
  0
VERTEX
  5
93
  8
Layer_0
  10
5736
  20
2774.5
  0
VERTEX
  5
94
  8
Layer_0
  10
5736
  20
2489.5
  0
VERTEX
  5
95
  8
Layer_0
  10
5706
  20
2489.5
  0
VERTEX
  5
96
  8
Layer_0
  10
5706
  20
2487
  0
VERTEX
  5
97
  8
Layer_0
  10
5736
  20
2487
  0
VERTEX
  5
98
  8
Layer_0
  10
5736
  20
2447
  0
VERTEX
  5
99
  8
Layer_0
  10
5676
  20
2447
  0
VERTEX
  5
9a
  8
Layer_0
  10
5676
  20
2579.498
  0
VERTEX
  5
9b
  8
Layer_0
  10
5705.9854
  20
2579.498
  0
VERTEX
  5
9c
  8
Layer_0
  10
5705.9854
  20
2581.998
  0
VERTEX
  5
9d
  8
Layer_0
  10
5676
  20
2581.998
  0
VERTEX
  5
9e
  8
Layer_0
  10
5676
  20
2682
  0
VERTEX
  5
9f
  8
Layer_0
  10
5706.0078
  20
2682
  0
VERTEX
  5
a0
  8
Layer_0
  10
5706.0078
  20
2684.5
  0
VERTEX
  5
a1
  8
Layer_0
  10
5676
  20
2684.5
  0
VERTEX
  5
a2
  8
Layer_0
  10
5676
  20
2817
  0
VERTEX
  5
a3
  8
Layer_0
  10
5736
  20
2817
  0
SEQEND
  0
POLYLINE
  5
a5
  8
Layer_0
  62
7
  70
1
  66
1
  10
0
  20
0
  30
0
  0
VERTEX
  5
a5
  8
Layer_0
  10
5392.3916
  20
2999.5344
  0
VERTEX
  5
a6
  8
Layer_0
  10
5392.3916
  20
2969.5344
  0
VERTEX
  5
a7
  8
Layer_0
  10
5562.3916
  20
2969.5344
  0
VERTEX
  5
a8
  8
Layer_0
  10
5562.3916
  20
2999.5344
  0
SEQEND
  0
CIRCLE
  5
aa
  8
Layer_2
  62
1
  10
5477.3916
  20
2984.5344
  30
0
  40
2
  0
CIRCLE
  5
aa
  8
Layer_2
  62
1
  10
5547.3916
  20
2984.5344
  30
0
  40
2
  0
CIRCLE
  5
aa
  8
Layer_2
  62
1
  10
5407.3916
  20
2984.5344
  30
0
  40
2
  0
POLYLINE
  5
aa
  8
Layer_0
  62
7
  70
1
  66
1
  10
0
  20
0
  30
0
  0
VERTEX
  5
aa
  8
Layer_0
  10
5400.7227
  20
2873.4026
  0
VERTEX
  5
ab
  8
Layer_0
  10
5400.7227
  20
2843.4026
  0
VERTEX
  5
ac
  8
Layer_0
  10
5570.7227
  20
2843.4026
  0
VERTEX
  5
ad
  8
Layer_0
  10
5570.7227
  20
2873.4026
  0
SEQEND
  0
CIRCLE
  5
af
  8
Layer_2
  62
1
  10
5485.7227
  20
2858.4026
  30
0
  40
2
  0
CIRCLE
  5
af
  8
Layer_2
  62
1
  10
5555.7227
  20
2858.4026
  30
0
  40
2
  0
CIRCLE
  5
af
  8
Layer_2
  62
1
  10
5415.7227
  20
2858.4026
  30
0
  40
2
  0
CIRCLE
  5
af
  8
Layer_2
  62
1
  10
5440
  20
2619.1611
  30
0
  40
5
  0
CIRCLE
  5
af
  8
Layer_2
  62
1
  10
5440
  20
2294.1611
  30
0
  40
5
  0
POLYLINE
  5
af
  8
Layer_0
  62
7
  70
1
  66
1
  10
0
  20
0
  30
0
  0
VERTEX
  5
af
  8
Layer_0
  10
5437
  20
2454.4517
  0
VERTEX
  5
b0
  8
Layer_0
  10
5402
  20
2454.4517
  0
VERTEX
  5
b1
  8
Layer_0
  10
5402
  20
2293.7415
  42
0.025458259
  0
VERTEX
  5
b2
  8
Layer_0
  10
5402.1602
  20
2291.1309
  42
0.037348818
  0
VERTEX
  5
b3
  8
Layer_0
  10
5402.8994
  20
2287.6462
  0
VERTEX
  5
b4
  8
Layer_0
  10
5403.2139
  20
2286.6938
  0
VERTEX
  5
b5
  8
Layer_0
  10
5403.5718
  20
2285.7632
  0
VERTEX
  5
b6
  8
Layer_0
  10
5403.9722
  20
2284.855
  0
VERTEX
  5
b7
  8
Layer_0
  10
5404.4141
  20
2283.9714
  42
0.061023306
  0
VERTEX
  5
b8
  8
Layer_0
  10
5407.1958
  20
2279.96
  0
VERTEX
  5
b9
  8
Layer_0
  10
5407.8579
  20
2279.248
  42
0.023092699
  0
VERTEX
  5
ba
  8
Layer_0
  10
5409.2783
  20
2277.925
  0
VERTEX
  5
bb
  8
Layer_0
  10
5410.0337
  20
2277.3167
  0
VERTEX
  5
bc
  8
Layer_0
  10
5410.8179
  20
2276.7451
  0
VERTEX
  5
bd
  8
Layer_0
  10
5411.6294
  20
2276.2122
  0
VERTEX
  5
be
  8
Layer_0
  10
5412.4668
  20
2275.7188
  42
0.013523267
  0
VERTEX
  5
bf
  8
Layer_0
  10
5414.2148
  20
2274.8555
  42
0.016237416
  0
VERTEX
  5
c0
  8
Layer_0
  10
5416.0527
  20
2274.166
  42
0.0044014137
  0
VERTEX
  5
c1
  8
Layer_0
  10
5417.002
  20
2273.8899
  0
VERTEX
  5
c2
  8
Layer_0
  10
5417.4834
  20
2273.7695
  0
VERTEX
  5
c3
  8
Layer_0
  10
5417.9692
  20
2273.6611
  0
VERTEX
  5
c4
  8
Layer_0
  10
5418.4595
  20
2273.5647
  0
VERTEX
  5
c5
  8
Layer_0
  10
5418.9541
  20
2273.481
  42
0.030259922
  0
VERTEX
  5
c6
  8
Layer_0
  10
5420.9707
  20
2273.2715
  0
VERTEX
  5
c7
  8
Layer_0
  10
5421.4834
  20
2273.2515
  0
VERTEX
  5
c8
  8
Layer_0
  10
5422
  20
2273.2446
  0
VERTEX
  5
c9
  8
Layer_0
  10
5452
  20
2273.2446
  42
0.006048212
  0
VERTEX
  5
ca
  8
Layer_0
  10
5453.0293
  20
2273.2715
  0
VERTEX
  5
cb
  8
Layer_0
  10
5453.5391
  20
2273.3044
  42
0.017115518
  0
VERTEX
  5
cc
  8
Layer_0
  10
5455.5405
  20
2273.5647
  0
VERTEX
  5
cd
  8
Layer_0
  10
5456.0308
  20
2273.6611
  0
VERTEX
  5
ce
  8
Layer_0
  10
5456.5166
  20
2273.7695
  42
0.0059089227
  0
VERTEX
  5
cf
  8
Layer_0
  10
5457.4751
  20
2274.0222
  0
VERTEX
  5
d0
  8
Layer_0
  10
5457.9473
  20
2274.166
  0
VERTEX
  5
d1
  8
Layer_0
  10
5458.8765
  20
2274.4885
  42
0.023949194
  0
VERTEX
  5
d2
  8
Layer_0
  10
5460.6709
  20
2275.2661
  0
VERTEX
  5
d3
  8
Layer_0
  10
5461.5332
  20
2275.7188
  0
VERTEX
  5
d4
  8
Layer_0
  10
5462.3706
  20
2276.2122
  42
0.041132244
  0
VERTEX
  5
d5
  8
Layer_0
  10
5464.7217
  20
2277.925
  0
VERTEX
  5
d6
  8
Layer_0
  10
5465.4473
  20
2278.5693
  0
VERTEX
  5
d7
  8
Layer_0
  10
5466.1421
  20
2279.248
  0
VERTEX
  5
d8
  8
Layer_0
  10
5466.8042
  20
2279.96
  0
VERTEX
  5
d9
  8
Layer_0
  10
5467.4331
  20
2280.7036
  42
0.020378692
  0
VERTEX
  5
da
  8
Layer_0
  10
5468.5845
  20
2282.2815
  0
VERTEX
  5
db
  8
Layer_0
  10
5469.1045
  20
2283.1133
  0
VERTEX
  5
dc
  8
Layer_0
  10
5469.5859
  20
2283.9714
  42
0.023169745
  0
VERTEX
  5
dd
  8
Layer_0
  10
5470.4282
  20
2285.7632
  0
VERTEX
  5
de
  8
Layer_0
  10
5470.7861
  20
2286.6938
  42
0.023317974
  0
VERTEX
  5
df
  8
Layer_0
  10
5471.3701
  20
2288.6191
  0
VERTEX
  5
e0
  8
Layer_0
  10
5471.5938
  20
2289.6108
  0
VERTEX
  5
e1
  8
Layer_0
  10
5471.688
  20
2290.1133
  0
VERTEX
  5
e2
  8
Layer_0
  10
5471.7695
  20
2290.6201
  0
VERTEX
  5
e3
  8
Layer_0
  10
5471.8398
  20
2291.1309
  0
VERTEX
  5
e4
  8
Layer_0
  10
5471.897
  20
2291.646
  42
0.0057934435
  0
VERTEX
  5
e5
  8
Layer_0
  10
5471.9741
  20
2292.6868
  0
VERTEX
  5
e6
  8
Layer_0
  10
5471.9937
  20
2293.2124
  0
VERTEX
  5
e7
  8
Layer_0
  10
5472
  20
2293.7415
  0
VERTEX
  5
e8
  8
Layer_0
  10
5472
  20
2626.2585
  0
VERTEX
  5
e9
  8
Layer_0
  10
5471.9937
  20
2626.7876
  0
VERTEX
  5
ea
  8
Layer_0
  10
5471.9741
  20
2627.3132
  0
VERTEX
  5
eb
  8
Layer_0
  10
5471.9419
  20
2627.8354
  0
VERTEX
  5
ec
  8
Layer_0
  10
5471.897
  20
2628.354
  0
VERTEX
  5
ed
  8
Layer_0
  10
5471.8398
  20
2628.8691
  42
0.0059420086
  0
VERTEX
  5
ee
  8
Layer_0
  10
5471.688
  20
2629.8867
  0
VERTEX
  5
ef
  8
Layer_0
  10
5471.5938
  20
2630.3892
  0
VERTEX
  5
f0
  8
Layer_0
  10
5471.3701
  20
2631.3809
  42
0.01655513
  0
VERTEX
  5
f1
  8
Layer_0
  10
5470.7861
  20
2633.3062
  42
0.062292767
  0
VERTEX
  5
f2
  8
Layer_0
  10
5468.5845
  20
2637.7185
  0
VERTEX
  5
f3
  8
Layer_0
  10
5468.0269
  20
2638.522
  0
VERTEX
  5
f4
  8
Layer_0
  10
5467.4331
  20
2639.2964
  0
VERTEX
  5
f5
  8
Layer_0
  10
5466.8042
  20
2640.04
  0
VERTEX
  5
f6
  8
Layer_0
  10
5466.1421
  20
2640.752
  0
VERTEX
  5
f7
  8
Layer_0
  10
5465.4473
  20
2641.4307
  42
0.028787623
  0
VERTEX
  5
f8
  8
Layer_0
  10
5463.1821
  20
2643.2549
  42
0.032721912
  0
VERTEX
  5
f9
  8
Layer_0
  10
5460.6709
  20
2644.7339
  0
VERTEX
  5
fa
  8
Layer_0
  10
5459.7852
  20
2645.1445
  0
VERTEX
  5
fb
  8
Layer_0
  10
5458.8765
  20
2645.5115
  0
VERTEX
  5
fc
  8
Layer_0
  10
5457.9473
  20
2645.834
  42
0.0062051207
  0
VERTEX
  5
fd
  8
Layer_0
  10
5456.998
  20
2646.1101
  42
0.0060299087
  0
VERTEX
  5
fe
  8
Layer_0
  10
5456.0308
  20
2646.3389
  0
VERTEX
  5
ff
  8
Layer_0
  10
5455.5405
  20
2646.4353
  0
VERTEX
  5
100
  8
Layer_0
  10
5455.0459
  20
2646.519
  0
VERTEX
  5
101
  8
Layer_0
  10
5454.5474
  20
2646.5906
  42
0.010349584
  0
VERTEX
  5
102
  8
Layer_0
  10
5453.5391
  20
2646.6956
  0
VERTEX
  5
103
  8
Layer_0
  10
5453.0293
  20
2646.7285
  0
VERTEX
  5
104
  8
Layer_0
  10
5452.5166
  20
2646.7485
  0
VERTEX
  5
105
  8
Layer_0
  10
5452
  20
2646.7554
  0
VERTEX
  5
106
  8
Layer_0
  10
5422
  20
2646.7554
  0
VERTEX
  5
107
  8
Layer_0
  10
5421.4834
  20
2646.7485
  42
0.019561689
  0
VERTEX
  5
108
  8
Layer_0
  10
5419.4526
  20
2646.5906
  0
VERTEX
  5
109
  8
Layer_0
  10
5418.9541
  20
2646.519
  0
VERTEX
  5
10a
  8
Layer_0
  10
5418.4595
  20
2646.4353
  42
0.0257067
  0
VERTEX
  5
10b
  8
Layer_0
  10
5416.0527
  20
2645.834
  0
VERTEX
  5
10c
  8
Layer_0
  10
5415.1235
  20
2645.5115
  0
VERTEX
  5
10d
  8
Layer_0
  10
5414.2148
  20
2645.1445
  42
0.015915095
  0
VERTEX
  5
10e
  8
Layer_0
  10
5412.4668
  20
2644.2813
  0
VERTEX
  5
10f
  8
Layer_0
  10
5411.6294
  20
2643.7878
  0
VERTEX
  5
110
  8
Layer_0
  10
5410.8179
  20
2643.2549
  0
VERTEX
  5
111
  8
Layer_0
  10
5410.0337
  20
2642.6833
  42
0.029910231
  0
VERTEX
  5
112
  8
Layer_0
  10
5407.8579
  20
2640.752
  0
VERTEX
  5
113
  8
Layer_0
  10
5407.1958
  20
2640.04
  42
0.024718441
  0
VERTEX
  5
114
  8
Layer_0
  10
5405.9731
  20
2638.522
  0
VERTEX
  5
115
  8
Layer_0
  10
5405.4155
  20
2637.7185
  0
VERTEX
  5
116
  8
Layer_0
  10
5404.8955
  20
2636.8867
  0
VERTEX
  5
117
  8
Layer_0
  10
5404.4141
  20
2636.0286
  0
VERTEX
  5
118
  8
Layer_0
  10
5403.9722
  20
2635.145
  42
0.031712554
  0
VERTEX
  5
119
  8
Layer_0
  10
5402.8994
  20
2632.3538
  0
VERTEX
  5
11a
  8
Layer_0
  10
5402.6299
  20
2631.3809
  0
VERTEX
  5
11b
  8
Layer_0
  10
5402.4063
  20
2630.3892
  0
VERTEX
  5
11c
  8
Layer_0
  10
5402.312
  20
2629.8867
  0
VERTEX
  5
11d
  8
Layer_0
  10
5402.2305
  20
2629.3799
  0
VERTEX
  5
11e
  8
Layer_0
  10
5402.1602
  20
2628.8691
  0
VERTEX
  5
11f
  8
Layer_0
  10
5402.103
  20
2628.354
  0
VERTEX
  5
120
  8
Layer_0
  10
5402.0581
  20
2627.8354
  42
0.020087052
  0
VERTEX
  5
121
  8
Layer_0
  10
5402
  20
2626.2585
  0
VERTEX
  5
122
  8
Layer_0
  10
5402
  20
2466.4517
  0
VERTEX
  5
123
  8
Layer_0
  10
5437
  20
2466.4517
  0
SEQEND
  0
CIRCLE
  5
125
  8
Layer_2
  62
1
  10
4847.2017
  20
2440.1809
  30
0
  40
5
  0
CIRCLE
  5
125
  8
Layer_2
  62
1
  10
5172.2017
  20
2440.1809
  30
0
  40
5
  0
POLYLINE
  5
125
  8
Layer_0
  62
7
  70
1
  66
1
  10
0
  20
0
  30
0
  0
VERTEX
  5
125
  8
Layer_0
  10
5011.9111
  20
2443.1809
  0
VERTEX
  5
126
  8
Layer_0
  10
5011.9111
  20
2478.1809
  0
VERTEX
  5
127
  8
Layer_0
  10
5172.6211
  20
2478.1809
  42
-0.025458259
  0
VERTEX
  5
128
  8
Layer_0
  10
5175.2319
  20
2478.0205
  42
-0.037348818
  0
VERTEX
  5
129
  8
Layer_0
  10
5178.7168
  20
2477.2817
  0
VERTEX
  5
12a
  8
Layer_0
  10
5179.6689
  20
2476.967
  0
VERTEX
  5
12b
  8
Layer_0
  10
5180.5996
  20
2476.6091
  0
VERTEX
  5
12c
  8
Layer_0
  10
5181.5078
  20
2476.2087
  0
VERTEX
  5
12d
  8
Layer_0
  10
5182.3916
  20
2475.7671
  42
-0.061023306
  0
VERTEX
  5
12e
  8
Layer_0
  10
5186.4028
  20
2472.9851
  0
VERTEX
  5
12f
  8
Layer_0
  10
5187.1147
  20
2472.323
  42
-0.023092698
  0
VERTEX
  5
130
  8
Layer_0
  10
5188.4375
  20
2470.9028
  0
VERTEX
  5
131
  8
Layer_0
  10
5189.0459
  20
2470.1472
  0
VERTEX
  5
132
  8
Layer_0
  10
5189.6177
  20
2469.363
  0
VERTEX
  5
133
  8
Layer_0
  10
5190.1504
  20
2468.5515
  0
VERTEX
  5
134
  8
Layer_0
  10
5190.644
  20
2467.7141
  42
-0.013523267
  0
VERTEX
  5
135
  8
Layer_0
  10
5191.5073
  20
2465.9658
  42
-0.016237416
  0
VERTEX
  5
136
  8
Layer_0
  10
5192.1968
  20
2464.1282
  42
-0.0044014137
  0
VERTEX
  5
137
  8
Layer_0
  10
5192.4727
  20
2463.1792
  0
VERTEX
  5
138
  8
Layer_0
  10
5192.5933
  20
2462.6975
  0
VERTEX
  5
139
  8
Layer_0
  10
5192.7017
  20
2462.2117
  0
VERTEX
  5
13a
  8
Layer_0
  10
5192.7979
  20
2461.7214
  0
VERTEX
  5
13b
  8
Layer_0
  10
5192.8818
  20
2461.2268
  42
-0.030259922
  0
VERTEX
  5
13c
  8
Layer_0
  10
5193.0913
  20
2459.2102
  0
VERTEX
  5
13d
  8
Layer_0
  10
5193.1113
  20
2458.6973
  0
VERTEX
  5
13e
  8
Layer_0
  10
5193.1182
  20
2458.1809
  0
VERTEX
  5
13f
  8
Layer_0
  10
5193.1182
  20
2428.1809
  42
-0.006048212
  0
VERTEX
  5
140
  8
Layer_0
  10
5193.0913
  20
2427.1516
  0
VERTEX
  5
141
  8
Layer_0
  10
5193.0586
  20
2426.6418
  42
-0.017115518
  0
VERTEX
  5
142
  8
Layer_0
  10
5192.7979
  20
2424.6404
  0
VERTEX
  5
143
  8
Layer_0
  10
5192.7017
  20
2424.1501
  0
VERTEX
  5
144
  8
Layer_0
  10
5192.5933
  20
2423.6643
  42
-0.0059089227
  0
VERTEX
  5
145
  8
Layer_0
  10
5192.3408
  20
2422.7058
  0
VERTEX
  5
146
  8
Layer_0
  10
5192.1968
  20
2422.2336
  0
VERTEX
  5
147
  8
Layer_0
  10
5191.874
  20
2421.3044
  42
-0.023949194
  0
VERTEX
  5
148
  8
Layer_0
  10
5191.0967
  20
2419.51
  0
VERTEX
  5
149
  8
Layer_0
  10
5190.644
  20
2418.6477
  0
VERTEX
  5
14a
  8
Layer_0
  10
5190.1504
  20
2417.8103
  42
-0.041132244
  0
VERTEX
  5
14b
  8
Layer_0
  10
5188.4375
  20
2415.459
  0
VERTEX
  5
14c
  8
Layer_0
  10
5187.7935
  20
2414.7334
  0
VERTEX
  5
14d
  8
Layer_0
  10
5187.1147
  20
2414.0388
  0
VERTEX
  5
14e
  8
Layer_0
  10
5186.4028
  20
2413.3767
  0
VERTEX
  5
14f
  8
Layer_0
  10
5185.6592
  20
2412.7478
  42
-0.020378692
  0
VERTEX
  5
150
  8
Layer_0
  10
5184.0811
  20
2411.5964
  0
VERTEX
  5
151
  8
Layer_0
  10
5183.2495
  20
2411.0764
  0
VERTEX
  5
152
  8
Layer_0
  10
5182.3916
  20
2410.5947
  42
-0.023169745
  0
VERTEX
  5
153
  8
Layer_0
  10
5180.5996
  20
2409.7527
  0
VERTEX
  5
154
  8
Layer_0
  10
5179.6689
  20
2409.3948
  42
-0.023317974
  0
VERTEX
  5
155
  8
Layer_0
  10
5177.7437
  20
2408.8105
  0
VERTEX
  5
156
  8
Layer_0
  10
5176.752
  20
2408.5872
  0
VERTEX
  5
157
  8
Layer_0
  10
5176.2495
  20
2408.4929
  0
VERTEX
  5
158
  8
Layer_0
  10
5175.7427
  20
2408.4111
  0
VERTEX
  5
159
  8
Layer_0
  10
5175.2319
  20
2408.3413
  0
VERTEX
  5
15a
  8
Layer_0
  10
5174.7168
  20
2408.2839
  42
-0.0057934435
  0
VERTEX
  5
15b
  8
Layer_0
  10
5173.6758
  20
2408.2068
  0
VERTEX
  5
15c
  8
Layer_0
  10
5173.1504
  20
2408.1873
  0
VERTEX
  5
15d
  8
Layer_0
  10
5172.6211
  20
2408.1809
  0
VERTEX
  5
15e
  8
Layer_0
  10
4840.1045
  20
2408.1809
  0
VERTEX
  5
15f
  8
Layer_0
  10
4839.5752
  20
2408.1873
  0
VERTEX
  5
160
  8
Layer_0
  10
4839.0498
  20
2408.2068
  0
VERTEX
  5
161
  8
Layer_0
  10
4838.5273
  20
2408.239
  0
VERTEX
  5
162
  8
Layer_0
  10
4838.0088
  20
2408.2839
  0
VERTEX
  5
163
  8
Layer_0
  10
4837.4937
  20
2408.3413
  42
-0.0059420086
  0
VERTEX
  5
164
  8
Layer_0
  10
4836.4761
  20
2408.4929
  0
VERTEX
  5
165
  8
Layer_0
  10
4835.9736
  20
2408.5872
  0
VERTEX
  5
166
  8
Layer_0
  10
4834.9819
  20
2408.8105
  42
-0.01655513
  0
VERTEX
  5
167
  8
Layer_0
  10
4833.0566
  20
2409.3948
  42
-0.062292767
  0
VERTEX
  5
168
  8
Layer_0
  10
4828.6445
  20
2411.5964
  0
VERTEX
  5
169
  8
Layer_0
  10
4827.8408
  20
2412.1541
  0
VERTEX
  5
16a
  8
Layer_0
  10
4827.0664
  20
2412.7478
  0
VERTEX
  5
16b
  8
Layer_0
  10
4826.3228
  20
2413.3767
  0
VERTEX
  5
16c
  8
Layer_0
  10
4825.6108
  20
2414.0388
  0
VERTEX
  5
16d
  8
Layer_0
  10
4824.9321
  20
2414.7334
  42
-0.028787623
  0
VERTEX
  5
16e
  8
Layer_0
  10
4823.1079
  20
2416.9988
  42
-0.032721912
  0
VERTEX
  5
16f
  8
Layer_0
  10
4821.6289
  20
2419.51
  0
VERTEX
  5
170
  8
Layer_0
  10
4821.2183
  20
2420.396
  0
VERTEX
  5
171
  8
Layer_0
  10
4820.8516
  20
2421.3044
  0
VERTEX
  5
172
  8
Layer_0
  10
4820.5288
  20
2422.2336
  42
-0.0062051207
  0
VERTEX
  5
173
  8
Layer_0
  10
4820.2529
  20
2423.1826
  42
-0.0060299087
  0
VERTEX
  5
174
  8
Layer_0
  10
4820.0239
  20
2424.1501
  0
VERTEX
  5
175
  8
Layer_0
  10
4819.9277
  20
2424.6404
  0
VERTEX
  5
176
  8
Layer_0
  10
4819.8438
  20
2425.135
  0
VERTEX
  5
177
  8
Layer_0
  10
4819.7725
  20
2425.6335
  42
-0.010349584
  0
VERTEX
  5
178
  8
Layer_0
  10
4819.667
  20
2426.6418
  0
VERTEX
  5
179
  8
Layer_0
  10
4819.6343
  20
2427.1516
  0
VERTEX
  5
17a
  8
Layer_0
  10
4819.6143
  20
2427.6646
  0
VERTEX
  5
17b
  8
Layer_0
  10
4819.6074
  20
2428.1809
  0
VERTEX
  5
17c
  8
Layer_0
  10
4819.6074
  20
2458.1809
  0
VERTEX
  5
17d
  8
Layer_0
  10
4819.6143
  20
2458.6973
  42
-0.019561689
  0
VERTEX
  5
17e
  8
Layer_0
  10
4819.7725
  20
2460.7283
  0
VERTEX
  5
17f
  8
Layer_0
  10
4819.8438
  20
2461.2268
  0
VERTEX
  5
180
  8
Layer_0
  10
4819.9277
  20
2461.7214
  42
-0.0257067
  0
VERTEX
  5
181
  8
Layer_0
  10
4820.5288
  20
2464.1282
  0
VERTEX
  5
182
  8
Layer_0
  10
4820.8516
  20
2465.0574
  0
VERTEX
  5
183
  8
Layer_0
  10
4821.2183
  20
2465.9658
  42
-0.015915095
  0
VERTEX
  5
184
  8
Layer_0
  10
4822.0815
  20
2467.7141
  0
VERTEX
  5
185
  8
Layer_0
  10
4822.5752
  20
2468.5515
  0
VERTEX
  5
186
  8
Layer_0
  10
4823.1079
  20
2469.363
  0
VERTEX
  5
187
  8
Layer_0
  10
4823.6797
  20
2470.1472
  42
-0.029910231
  0
VERTEX
  5
188
  8
Layer_0
  10
4825.6108
  20
2472.323
  0
VERTEX
  5
189
  8
Layer_0
  10
4826.3228
  20
2472.9851
  42
-0.024718441
  0
VERTEX
  5
18a
  8
Layer_0
  10
4827.8408
  20
2474.2078
  0
VERTEX
  5
18b
  8
Layer_0
  10
4828.6445
  20
2474.7654
  0
VERTEX
  5
18c
  8
Layer_0
  10
4829.4761
  20
2475.2854
  0
VERTEX
  5
18d
  8
Layer_0
  10
4830.334
  20
2475.7671
  0
VERTEX
  5
18e
  8
Layer_0
  10
4831.2178
  20
2476.2087
  42
-0.031712554
  0
VERTEX
  5
18f
  8
Layer_0
  10
4834.0088
  20
2477.2817
  0
VERTEX
  5
190
  8
Layer_0
  10
4834.9819
  20
2477.5513
  0
VERTEX
  5
191
  8
Layer_0
  10
4835.9736
  20
2477.7747
  0
VERTEX
  5
192
  8
Layer_0
  10
4836.4761
  20
2477.8689
  0
VERTEX
  5
193
  8
Layer_0
  10
4836.9829
  20
2477.9507
  0
VERTEX
  5
194
  8
Layer_0
  10
4837.4937
  20
2478.0205
  0
VERTEX
  5
195
  8
Layer_0
  10
4838.0088
  20
2478.0779
  0
VERTEX
  5
196
  8
Layer_0
  10
4838.5273
  20
2478.1228
  42
-0.020087052
  0
VERTEX
  5
197
  8
Layer_0
  10
4840.1045
  20
2478.1809
  0
VERTEX
  5
198
  8
Layer_0
  10
4999.9111
  20
2478.1809
  0
VERTEX
  5
199
  8
Layer_0
  10
4999.9111
  20
2443.1809
  0
SEQEND
  0
POLYLINE
  5
19b
  8
Layer_0
  62
7
  70
1
  66
1
  10
0
  20
0
  30
0
  0
VERTEX
  5
19b
  8
Layer_0
  10
5312.9111
  20
3049.0261
  42
0.41421356
  0
VERTEX
  5
19c
  8
Layer_0
  10
5252.9111
  20
3109.0261
  0
VERTEX
  5
19d
  8
Layer_0
  10
5002.9111
  20
3109.0261
  42
0.41421356
  0
VERTEX
  5
19e
  8
Layer_0
  10
4942.9111
  20
3049.0261
  0
VERTEX
  5
19f
  8
Layer_0
  10
4942.9111
  20
3005.7095
  42
0.10331852
  0
VERTEX
  5
1a0
  8
Layer_0
  10
4943.7495
  20
3001.6987
  0
VERTEX
  5
1a1
  8
Layer_0
  10
4944.9759
  20
2998.927
  0
VERTEX
  5
1a2
  8
Layer_0
  10
4946.2077
  20
2996.2302
  0
VERTEX
  5
1a3
  8
Layer_0
  10
4947.4449
  20
2993.6073
  0
VERTEX
  5
1a4
  8
Layer_0
  10
4948.6877
  20
2991.0573
  0
VERTEX
  5
1a5
  8
Layer_0
  10
4949.9362
  20
2988.5792
  0
VERTEX
  5
1a6
  8
Layer_0
  10
4951.1905
  20
2986.172
  0
VERTEX
  5
1a7
  8
Layer_0
  10
4952.4506
  20
2983.8348
  0
VERTEX
  5
1a8
  8
Layer_0
  10
4953.7169
  20
2981.5664
  0
VERTEX
  5
1a9
  8
Layer_0
  10
4954.9892
  20
2979.3659
  0
VERTEX
  5
1aa
  8
Layer_0
  10
4956.2679
  20
2977.2323
  0
VERTEX
  5
1ab
  8
Layer_0
  10
4957.5529
  20
2975.1646
  0
VERTEX
  5
1ac
  8
Layer_0
  10
4958.8444
  20
2973.1618
  0
VERTEX
  5
1ad
  8
Layer_0
  10
4960.1424
  20
2971.223
  0
VERTEX
  5
1ae
  8
Layer_0
  10
4961.4473
  20
2969.347
  0
VERTEX
  5
1af
  8
Layer_0
  10
4962.7589
  20
2967.5329
  0
VERTEX
  5
1b0
  8
Layer_0
  10
4964.0775
  20
2965.7797
  0
VERTEX
  5
1b1
  8
Layer_0
  10
4965.4031
  20
2964.0865
  0
VERTEX
  5
1b2
  8
Layer_0
  10
4966.7359
  20
2962.4521
  0
VERTEX
  5
1b3
  8
Layer_0
  10
4968.0761
  20
2960.8756
  0
VERTEX
  5
1b4
  8
Layer_0
  10
4969.4236
  20
2959.356
  0
VERTEX
  5
1b5
  8
Layer_0
  10
4970.7786
  20
2957.8924
  0
VERTEX
  5
1b6
  8
Layer_0
  10
4972.1413
  20
2956.4836
  0
VERTEX
  5
1b7
  8
Layer_0
  10
4973.5117
  20
2955.1287
  0
VERTEX
  5
1b8
  8
Layer_0
  10
4974.89
  20
2953.8268
  0
VERTEX
  5
1b9
  8
Layer_0
  10
4976.2762
  20
2952.5767
  0
VERTEX
  5
1ba
  8
Layer_0
  10
4977.6706
  20
2951.3775
  0
VERTEX
  5
1bb
  8
Layer_0
  10
4979.0731
  20
2950.2282
  0
VERTEX
  5
1bc
  8
Layer_0
  10
4980.484
  20
2949.1279
  0
VERTEX
  5
1bd
  8
Layer_0
  10
4981.9033
  20
2948.0754
  0
VERTEX
  5
1be
  8
Layer_0
  10
4983.3312
  20
2947.0698
  0
VERTEX
  5
1bf
  8
Layer_0
  10
4984.7677
  20
2946.1101
  0
VERTEX
  5
1c0
  8
Layer_0
  10
4986.213
  20
2945.1953
  0
VERTEX
  5
1c1
  8
Layer_0
  10
4987.6672
  20
2944.3245
  0
VERTEX
  5
1c2
  8
Layer_0
  10
4989.1304
  20
2943.4965
  0
VERTEX
  5
1c3
  8
Layer_0
  10
4990.6027
  20
2942.7104
  0
VERTEX
  5
1c4
  8
Layer_0
  10
4992.0843
  20
2941.9652
  0
VERTEX
  5
1c5
  8
Layer_0
  10
4993.5752
  20
2941.2599
  0
VERTEX
  5
1c6
  8
Layer_0
  10
4995.0756
  20
2940.5935
  0
VERTEX
  5
1c7
  8
Layer_0
  10
4996.5856
  20
2939.965
  0
VERTEX
  5
1c8
  8
Layer_0
  10
4998.1052
  20
2939.3734
  0
VERTEX
  5
1c9
  8
Layer_0
  10
4999.6347
  20
2938.8177
  0
VERTEX
  5
1ca
  8
Layer_0
  10
5001.1741
  20
2938.2969
  0
VERTEX
  5
1cb
  8
Layer_0
  10
5002.7235
  20
2937.81
  0
VERTEX
  5
1cc
  8
Layer_0
  10
5004.2831
  20
2937.356
  0
VERTEX
  5
1cd
  8
Layer_0
  10
5005.853
  20
2936.9339
  0
VERTEX
  5
1ce
  8
Layer_0
  10
5007.4332
  20
2936.5427
  0
VERTEX
  5
1cf
  8
Layer_0
  10
5009.0239
  20
2936.1813
  0
VERTEX
  5
1d0
  8
Layer_0
  10
5010.6253
  20
2935.8489
  0
VERTEX
  5
1d1
  8
Layer_0
  10
5012.2374
  20
2935.5444
  0
VERTEX
  5
1d2
  8
Layer_0
  10
5013.8603
  20
2935.2667
  0
VERTEX
  5
1d3
  8
Layer_0
  10
5015.4941
  20
2935.015
  0
VERTEX
  5
1d4
  8
Layer_0
  10
5017.1391
  20
2934.7882
  0
VERTEX
  5
1d5
  8
Layer_0
  10
5020.4626
  20
2934.4052
  0
VERTEX
  5
1d6
  8
Layer_0
  10
5023.8318
  20
2934.1097
  0
VERTEX
  5
1d7
  8
Layer_0
  10
5027.2476
  20
2933.8939
  0
VERTEX
  5
1d8
  8
Layer_0
  10
5030.7108
  20
2933.7496
  0
VERTEX
  5
1d9
  8
Layer_0
  10
5034.2225
  20
2933.6689
  0
VERTEX
  5
1da
  8
Layer_0
  10
5037.7834
  20
2933.6438
  0
VERTEX
  5
1db
  8
Layer_0
  10
5218.2363
  20
2933.3354
  0
VERTEX
  5
1dc
  8
Layer_0
  10
5221.8089
  20
2933.3616
  0
VERTEX
  5
1dd
  8
Layer_0
  10
5225.3466
  20
2933.4454
  0
VERTEX
  5
1de
  8
Layer_0
  10
5228.8491
  20
2933.5946
  0
VERTEX
  5
1df
  8
Layer_0
  10
5232.3157
  20
2933.8172
  0
VERTEX
  5
1e0
  8
Layer_0
  10
5235.7458
  20
2934.121
  0
VERTEX
  5
1e1
  8
Layer_0
  10
5239.1387
  20
2934.514
  0
VERTEX
  5
1e2
  8
Layer_0
  10
5240.8211
  20
2934.7464
  0
VERTEX
  5
1e3
  8
Layer_0
  10
5242.4939
  20
2935.004
  0
VERTEX
  5
1e4
  8
Layer_0
  10
5244.1571
  20
2935.2879
  0
VERTEX
  5
1e5
  8
Layer_0
  10
5245.8106
  20
2935.599
  0
VERTEX
  5
1e6
  8
Layer_0
  10
5247.4544
  20
2935.9383
  0
VERTEX
  5
1e7
  8
Layer_0
  10
5249.0883
  20
2936.3068
  0
VERTEX
  5
1e8
  8
Layer_0
  10
5250.7123
  20
2936.7055
  0
VERTEX
  5
1e9
  8
Layer_0
  10
5252.3263
  20
2937.1353
  0
VERTEX
  5
1ea
  8
Layer_0
  10
5253.9303
  20
2937.5973
  0
VERTEX
  5
1eb
  8
Layer_0
  10
5255.524
  20
2938.0924
  0
VERTEX
  5
1ec
  8
Layer_0
  10
5257.1075
  20
2938.6217
  0
VERTEX
  5
1ed
  8
Layer_0
  10
5258.6807
  20
2939.186
  0
VERTEX
  5
1ee
  8
Layer_0
  10
5260.2435
  20
2939.7865
  0
VERTEX
  5
1ef
  8
Layer_0
  10
5261.7959
  20
2940.424
  0
VERTEX
  5
1f0
  8
Layer_0
  10
5263.3376
  20
2941.0996
  0
VERTEX
  5
1f1
  8
Layer_0
  10
5264.8688
  20
2941.8143
  0
VERTEX
  5
1f2
  8
Layer_0
  10
5266.3892
  20
2942.569
  0
VERTEX
  5
1f3
  8
Layer_0
  10
5267.8988
  20
2943.3647
  0
VERTEX
  5
1f4
  8
Layer_0
  10
5269.3975
  20
2944.2025
  0
VERTEX
  5
1f5
  8
Layer_0
  10
5270.8853
  20
2945.0832
  0
VERTEX
  5
1f6
  8
Layer_0
  10
5272.3621
  20
2946.008
  0
VERTEX
  5
1f7
  8
Layer_0
  10
5273.8277
  20
2946.9777
  0
VERTEX
  5
1f8
  8
Layer_0
  10
5275.2822
  20
2947.9934
  0
VERTEX
  5
1f9
  8
Layer_0
  10
5276.7253
  20
2949.056
  0
VERTEX
  5
1fa
  8
Layer_0
  10
5278.1572
  20
2950.1665
  0
VERTEX
  5
1fb
  8
Layer_0
  10
5279.5776
  20
2951.326
  0
VERTEX
  5
1fc
  8
Layer_0
  10
5280.9864
  20
2952.5354
  0
VERTEX
  5
1fd
  8
Layer_0
  10
5282.3837
  20
2953.7957
  0
VERTEX
  5
1fe
  8
Layer_0
  10
5283.7694
  20
2955.1078
  0
VERTEX
  5
1ff
  8
Layer_0
  10
5285.1432
  20
2956.4728
  0
VERTEX
  5
200
  8
Layer_0
  10
5286.5053
  20
2957.8917
  0
VERTEX
  5
201
  8
Layer_0
  10
5287.8554
  20
2959.3654
  0
VERTEX
  5
202
  8
Layer_0
  10
5289.1936
  20
2960.895
  0
VERTEX
  5
203
  8
Layer_0
  10
5290.5197
  20
2962.4813
  0
VERTEX
  5
204
  8
Layer_0
  10
5291.8336
  20
2964.1254
  0
VERTEX
  5
205
  8
Layer_0
  10
5293.1353
  20
2965.8284
  0
VERTEX
  5
206
  8
Layer_0
  10
5294.4247
  20
2967.5911
  0
VERTEX
  5
207
  8
Layer_0
  10
5295.7018
  20
2969.4145
  0
VERTEX
  5
208
  8
Layer_0
  10
5296.9663
  20
2971.2997
  0
VERTEX
  5
209
  8
Layer_0
  10
5298.2183
  20
2973.2477
  0
VERTEX
  5
20a
  8
Layer_0
  10
5299.4577
  20
2975.2593
  0
VERTEX
  5
20b
  8
Layer_0
  10
5300.6844
  20
2977.3356
  0
VERTEX
  5
20c
  8
Layer_0
  10
5301.8984
  20
2979.4777
  0
VERTEX
  5
20d
  8
Layer_0
  10
5303.0994
  20
2981.6864
  0
VERTEX
  5
20e
  8
Layer_0
  10
5304.2875
  20
2983.9628
  0
VERTEX
  5
20f
  8
Layer_0
  10
5305.4626
  20
2986.3078
  0
VERTEX
  5
210
  8
Layer_0
  10
5306.6246
  20
2988.7224
  0
VERTEX
  5
211
  8
Layer_0
  10
5307.7734
  20
2991.2077
  0
VERTEX
  5
212
  8
Layer_0
  10
5308.909
  20
2993.7646
  0
VERTEX
  5
213
  8
Layer_0
  10
5310.0312
  20
2996.3941
  0
VERTEX
  5
214
  8
Layer_0
  10
5311.14
  20
2999.0971
  0
VERTEX
  5
215
  8
Layer_0
  10
5312.2354
  20
3001.8748
  42
0.092613178
  0
VERTEX
  5
216
  8
Layer_0
  10
5312.9111
  20
3005.4905
  0
SEQEND
  0
CIRCLE
  5
218
  8
Layer_2
  62
1
  10
5127.4111
  20
3084.335
  30
0
  40
2
  0
CIRCLE
  5
218
  8
Layer_2
  62
1
  10
5057.4111
  20
3084.335
  30
0
  40
2
  0
CIRCLE
  5
218
  8
Layer_2
  62
1
  10
5197.4111
  20
3084.335
  30
0
  40
2
  0
CIRCLE
  5
218
  8
Layer_2
  62
1
  10
5128.4111
  20
2958.335
  30
0
  40
2
  0
CIRCLE
  5
218
  8
Layer_2
  62
1
  10
5058.4111
  20
2958.335
  30
0
  40
2
  0
CIRCLE
  5
218
  8
Layer_2
  62
1
  10
5198.4111
  20
2958.335
  30
0
  40
2
  0
POLYLINE
  5
218
  8
Layer_0
  62
7
  70
1
  66
1
  10
0
  20
0
  30
0
  0
VERTEX
  5
218
  8
Layer_0
  10
4941.6025
  20
2903.8215
  0
VERTEX
  5
219
  8
Layer_0
  10
4943.7881
  20
2903.8027
  42
-0.02435505
  0
VERTEX
  5
21a
  8
Layer_0
  10
4990.0176
  20
2900.854
  42
-0.043566212
  0
VERTEX
  5
21b
  8
Layer_0
  10
5095.1431
  20
2879.8606
  42
-0.023001853
  0
VERTEX
  5
21c
  8
Layer_0
  10
5136.5176
  20
2865.6016
  42
-0.023965444
  0
VERTEX
  5
21d
  8
Layer_0
  10
5165.4512
  20
2852.3853
  42
-0.031399713
  0
VERTEX
  5
21e
  8
Layer_0
  10
5188.7002
  20
2838.4111
  42
-0.030566522
  0
VERTEX
  5
21f
  8
Layer_0
  10
5202.3779
  20
2827.5525
  42
-0.021985469
  0
VERTEX
  5
220
  8
Layer_0
  10
5208.9033
  20
2821.0605
  0
VERTEX
  5
221
  8
Layer_0
  10
5208.7886
  20
2772.5889
  0
VERTEX
  5
222
  8
Layer_0
  10
5163.3647
  20
2772.593
  0
VERTEX
  5
223
  8
Layer_0
  10
5163.3647
  20
2766.593
  0
VERTEX
  5
224
  8
Layer_0
  10
5208.7744
  20
2766.5889
  0
VERTEX
  5
225
  8
Layer_0
  10
5208.5474
  20
2670.5889
  0
VERTEX
  5
226
  8
Layer_0
  10
5163.1504
  20
2670.5889
  0
VERTEX
  5
227
  8
Layer_0
  10
5163.1504
  20
2664.5889
  0
VERTEX
  5
228
  8
Layer_0
  10
5208.5332
  20
2664.5889
  0
VERTEX
  5
229
  8
Layer_0
  10
5208.4185
  20
2616.0869
  42
-0.041766196
  0
VERTEX
  5
22a
  8
Layer_0
  10
5193.0459
  20
2603.1997
  42
-0.033303578
  0
VERTEX
  5
22b
  8
Layer_0
  10
5173.1299
  20
2590.937
  42
-0.026689395
  0
VERTEX
  5
22c
  8
Layer_0
  10
5147.7646
  20
2579.1069
  42
-0.021854744
  0
VERTEX
  5
22d
  8
Layer_0
  10
5115.5229
  20
2567.5918
  42
-0.016528933
  0
VERTEX
  5
22e
  8
Layer_0
  10
5079.7627
  20
2557.7195
  42
-0.016322135
  0
VERTEX
  5
22f
  8
Layer_0
  10
5028.3877
  20
2547.0188
  42
-0.012756372
  0
VERTEX
  5
230
  8
Layer_0
  10
4972.1895
  20
2538.5513
  42
-0.0081493245
  0
VERTEX
  5
231
  8
Layer_0
  10
4926.8604
  20
2533.5889
  42
-0.22400932
  0
VERTEX
  5
232
  8
Layer_0
  10
4872.9082
  20
2558.9807
  42
-0.17509536
  0
VERTEX
  5
233
  8
Layer_0
  10
4856.8604
  20
2603.5889
  0
VERTEX
  5
234
  8
Layer_0
  10
4856.8604
  20
2833.5889
  42
-0.25284947
  0
VERTEX
  5
235
  8
Layer_0
  10
4888.4316
  20
2892.1094
  42
-0.14691937
  0
VERTEX
  5
236
  8
Layer_0
  10
4926.8604
  20
2903.5889
  42
-0.011065396
  0
SEQEND
  0
CIRCLE
  5
238
  8
Layer_2
  62
1
  10
4946.8818
  20
2802.7068
  30
0
  40
1.5
  0
CIRCLE
  5
238
  8
Layer_2
  62
1
  10
4951.8818
  20
2647.7068
  30
0
  40
1.5
  0
CIRCLE
  5
238
  8
Layer_2
  62
1
  10
5121.8818
  20
2803.7068
  30
0
  40
1.5
  0
CIRCLE
  5
238
  8
Layer_2
  62
1
  10
5122.8818
  20
2643.7068
  30
0
  40
1.5
  0
POLYLINE
  5
238
  8
Layer_0
  62
7
  66
1
  10
0
  20
0
  30
0
  0
VERTEX
  5
238
  8
Layer_0
  10
5607.7988
  20
3022.3171
  0
VERTEX
  5
239
  8
Layer_0
  10
5610.2988
  20
3022.3171
  0
VERTEX
  5
23a
  8
Layer_0
  10
5610.2988
  20
2992.3171
  0
VERTEX
  5
23b
  8
Layer_0
  10
5607.7988
  20
2992.3171
  0
VERTEX
  5
23c
  8
Layer_0
  10
5607.7988
  20
2896.3357
  0
VERTEX
  5
23d
  8
Layer_0
  10
5610.2988
  20
2896.3357
  0
VERTEX
  5
23e
  8
Layer_0
  10
5610.2988
  20
2866.3357
  0
VERTEX
  5
23f
  8
Layer_0
  10
5630.4678
  20
2866.3357
  0
VERTEX
  5
240
  8
Layer_0
  10
5630.4941
  20
2865.7071
  0
VERTEX
  5
241
  8
Layer_0
  10
5630.5192
  20
2865.0495
  0
VERTEX
  5
242
  8
Layer_0
  10
5630.5427
  20
2864.3633
  0
VERTEX
  5
243
  8
Layer_0
  10
5630.5648
  20
2863.649
  0
VERTEX
  5
244
  8
Layer_0
  10
5630.5852
  20
2862.9068
  0
VERTEX
  5
245
  8
Layer_0
  10
5630.604
  20
2862.1372
  0
VERTEX
  5
246
  8
Layer_0
  10
5630.6212
  20
2861.3404
  0
VERTEX
  5
247
  8
Layer_0
  10
5630.6367
  20
2860.5169
  0
VERTEX
  5
248
  8
Layer_0
  10
5630.6505
  20
2859.667
  0
VERTEX
  5
249
  8
Layer_0
  10
5630.6624
  20
2858.7912
  0
VERTEX
  5
24a
  8
Layer_0
  10
5630.6726
  20
2857.8897
  0
VERTEX
  5
24b
  8
Layer_0
  10
5630.681
  20
2856.9629
  0
VERTEX
  5
24c
  8
Layer_0
  10
5630.692
  20
2855.035
  0
VERTEX
  5
24d
  8
Layer_0
  10
5630.6953
  20
2853.0105
  0
VERTEX
  5
24e
  8
Layer_0
  10
5630.6905
  20
2850.8922
  0
VERTEX
  5
24f
  8
Layer_0
  10
5630.6773
  20
2848.6831
  0
VERTEX
  5
250
  8
Layer_0
  10
5630.6554
  20
2846.3862
  0
VERTEX
  5
251
  8
Layer_0
  10
5630.6245
  20
2844.0044
  0
VERTEX
  5
252
  8
Layer_0
  10
5630.5845
  20
2841.5405
  0
VERTEX
  5
253
  8
Layer_0
  10
5630.5348
  20
2838.9977
  0
VERTEX
  5
254
  8
Layer_0
  10
5630.4754
  20
2836.3787
  0
VERTEX
  5
255
  8
Layer_0
  10
5630.4058
  20
2833.6866
  0
VERTEX
  5
256
  8
Layer_0
  10
5630.3257
  20
2830.9243
  0
VERTEX
  5
257
  8
Layer_0
  10
5630.235
  20
2828.0946
  0
VERTEX
  5
258
  8
Layer_0
  10
5630.1332
  20
2825.2006
  0
VERTEX
  5
259
  8
Layer_0
  10
5630.0202
  20
2822.2452
  0
VERTEX
  5
25a
  8
Layer_0
  10
5629.8955
  20
2819.2314
  0
VERTEX
  5
25b
  8
Layer_0
  10
5629.759
  20
2816.1619
  0
VERTEX
  5
25c
  8
Layer_0
  10
5629.6103
  20
2813.0399
  0
VERTEX
  5
25d
  8
Layer_0
  10
5629.4491
  20
2809.8682
  0
VERTEX
  5
25e
  8
Layer_0
  10
5629.2752
  20
2806.6498
  0
VERTEX
  5
25f
  8
Layer_0
  10
5629.0881
  20
2803.3876
  0
VERTEX
  5
260
  8
Layer_0
  10
5628.8878
  20
2800.0845
  0
VERTEX
  5
261
  8
Layer_0
  10
5628.6738
  20
2796.7435
  0
VERTEX
  5
262
  8
Layer_0
  10
5628.4458
  20
2793.3676
  0
VERTEX
  5
263
  8
Layer_0
  10
5628.2037
  20
2789.9596
  0
VERTEX
  5
264
  8
Layer_0
  10
5627.947
  20
2786.5225
  0
VERTEX
  5
265
  8
Layer_0
  10
5627.6754
  20
2783.0592
  0
VERTEX
  5
266
  8
Layer_0
  10
5627.0868
  20
2776.0659
  0
VERTEX
  5
267
  8
Layer_0
  10
5626.4354
  20
2769.0032
  0
VERTEX
  5
268
  8
Layer_0
  10
5625.7189
  20
2761.8946
  0
VERTEX
  5
269
  8
Layer_0
  10
5624.9349
  20
2754.7636
  0
VERTEX
  5
26a
  8
Layer_0
  10
5624.0811
  20
2747.6337
  0
VERTEX
  5
26b
  8
Layer_0
  10
5623.1552
  20
2740.5283
  0
VERTEX
  5
26c
  8
Layer_0
  10
5622.6645
  20
2736.9922
  0
VERTEX
  5
26d
  8
Layer_0
  10
5622.1548
  20
2733.4711
  0
VERTEX
  5
26e
  8
Layer_0
  10
5621.626
  20
2729.9678
  0
VERTEX
  5
26f
  8
Layer_0
  10
5621.0776
  20
2726.4854
  0
VERTEX
  5
270
  8
Layer_0
  10
5620.5095
  20
2723.0268
  0
VERTEX
  5
271
  8
Layer_0
  10
5619.9212
  20
2719.5949
  0
VERTEX
  5
272
  8
Layer_0
  10
5619.3126
  20
2716.1926
  0
VERTEX
  5
273
  8
Layer_0
  10
5618.6834
  20
2712.8229
  0
VERTEX
  5
274
  8
Layer_0
  10
5618.0331
  20
2709.4887
  0
VERTEX
  5
275
  8
Layer_0
  10
5617.3616
  20
2706.193
  0
VERTEX
  5
276
  8
Layer_0
  10
5616.6686
  20
2702.9387
  0
VERTEX
  5
277
  8
Layer_0
  10
5615.9537
  20
2699.7287
  0
VERTEX
  5
278
  8
Layer_0
  10
5615.2167
  20
2696.566
  0
VERTEX
  5
279
  8
Layer_0
  10
5614.4573
  20
2693.4534
  0
VERTEX
  5
27a
  8
Layer_0
  10
5613.6751
  20
2690.3941
  0
VERTEX
  5
27b
  8
Layer_0
  10
5612.87
  20
2687.3908
  0
VERTEX
  5
27c
  8
Layer_0
  10
5612.0415
  20
2684.4466
  0
VERTEX
  5
27d
  8
Layer_0
  10
5611.1894
  20
2681.5643
  0
VERTEX
  5
27e
  8
Layer_0
  10
5610.3135
  20
2678.7469
  0
VERTEX
  5
27f
  8
Layer_0
  10
5609.4133
  20
2675.9973
  0
VERTEX
  5
280
  8
Layer_0
  10
5594.4131
  20
2638.7688
  0
VERTEX
  5
281
  8
Layer_0
  10
5594.4058
  20
2636.7133
  0
VERTEX
  5
282
  8
Layer_0
  10
5594.3964
  20
2634.6973
  0
VERTEX
  5
283
  8
Layer_0
  10
5594.4037
  20
2632.7338
  0
VERTEX
  5
284
  8
Layer_0
  10
5594.4466
  20
2630.8355
  0
VERTEX
  5
285
  8
Layer_0
  10
5594.4871
  20
2629.9148
  0
VERTEX
  5
286
  8
Layer_0
  10
5594.5437
  20
2629.0153
  0
VERTEX
  5
287
  8
Layer_0
  10
5594.6184
  20
2628.1385
  0
VERTEX
  5
288
  8
Layer_0
  10
5594.7138
  20
2627.2861
  0
VERTEX
  5
289
  8
Layer_0
  10
5594.8322
  20
2626.4595
  0
VERTEX
  5
28a
  8
Layer_0
  10
5594.9759
  20
2625.6606
  0
VERTEX
  5
28b
  8
Layer_0
  10
5595.1472
  20
2624.8908
  0
VERTEX
  5
28c
  8
Layer_0
  10
5595.3486
  20
2624.1517
  0
VERTEX
  5
28d
  8
Layer_0
  10
5595.5823
  20
2623.445
  0
VERTEX
  5
28e
  8
Layer_0
  10
5595.8507
  20
2622.7723
  0
VERTEX
  5
28f
  8
Layer_0
  10
5596.1562
  20
2622.1351
  0
VERTEX
  5
290
  8
Layer_0
  10
5596.5011
  20
2621.5351
  0
VERTEX
  5
291
  8
Layer_0
  10
5596.8878
  20
2620.9739
  0
VERTEX
  5
292
  8
Layer_0
  10
5597.3185
  20
2620.4531
  0
VERTEX
  5
293
  8
Layer_0
  10
5597.7957
  20
2619.9742
  0
VERTEX
  5
294
  8
Layer_0
  10
5598.3217
  20
2619.539
  0
VERTEX
  5
295
  8
Layer_0
  10
5598.8989
  20
2619.1489
  0
VERTEX
  5
296
  8
Layer_0
  10
5599.5295
  20
2618.8057
  0
VERTEX
  5
297
  8
Layer_0
  10
5600.216
  20
2618.5108
  0
VERTEX
  5
298
  8
Layer_0
  10
5600.9607
  20
2618.266
  0
VERTEX
  5
299
  8
Layer_0
  10
5601.7659
  20
2618.0728
  0
VERTEX
  5
29a
  8
Layer_0
  10
5602.634
  20
2617.9328
  0
VERTEX
  5
29b
  8
Layer_0
  10
5603.5674
  20
2617.8476
  0
VERTEX
  5
29c
  8
Layer_0
  10
5604.5684
  20
2617.8188
  0
VERTEX
  5
29d
  8
Layer_0
  10
5614.6787
  20
2617.8188
  0
VERTEX
  5
29e
  8
Layer_0
  10
5614.6787
  20
2647.9421
  0
VERTEX
  5
29f
  8
Layer_0
  10
5617.1787
  20
2647.9421
  0
VERTEX
  5
2a0
  8
Layer_0
  10
5617.1787
  20
2617.8188
  0
VERTEX
  5
2a1
  8
Layer_0
  10
5649.4131
  20
2618.0212
  0
VERTEX
  5
2a2
  8
Layer_0
  10
5649.4131
  20
2677.5408
  0
VERTEX
  5
2a3
  8
Layer_0
  10
5649.9306
  20
2679.0016
  0
VERTEX
  5
2a4
  8
Layer_0
  10
5650.4415
  20
2680.5204
  0
VERTEX
  5
2a5
  8
Layer_0
  10
5650.9454
  20
2682.0964
  0
VERTEX
  5
2a6
  8
Layer_0
  10
5651.4424
  20
2683.7287
  0
VERTEX
  5
2a7
  8
Layer_0
  10
5651.9323
  20
2685.4165
  0
VERTEX
  5
2a8
  8
Layer_0
  10
5652.4153
  20
2687.1588
  0
VERTEX
  5
2a9
  8
Layer_0
  10
5652.8911
  20
2688.9549
  0
VERTEX
  5
2aa
  8
Layer_0
  10
5653.3599
  20
2690.8039
  0
VERTEX
  5
2ab
  8
Layer_0
  10
5653.8216
  20
2692.7048
  0
VERTEX
  5
2ac
  8
Layer_0
  10
5654.2761
  20
2694.6569
  0
VERTEX
  5
2ad
  8
Layer_0
  10
5654.7235
  20
2696.6592
  0
VERTEX
  5
2ae
  8
Layer_0
  10
5655.1637
  20
2698.711
  0
VERTEX
  5
2af
  8
Layer_0
  10
5655.5966
  20
2700.8113
  0
VERTEX
  5
2b0
  8
Layer_0
  10
5656.0222
  20
2702.9593
  0
VERTEX
  5
2b1
  8
Layer_0
  10
5656.4406
  20
2705.1542
  0
VERTEX
  5
2b2
  8
Layer_0
  10
5656.8516
  20
2707.3949
  0
VERTEX
  5
2b3
  8
Layer_0
  10
5657.2553
  20
2709.6808
  0
VERTEX
  5
2b4
  8
Layer_0
  10
5657.6516
  20
2712.011
  0
VERTEX
  5
2b5
  8
Layer_0
  10
5658.0404
  20
2714.3844
  0
VERTEX
  5
2b6
  8
Layer_0
  10
5658.4219
  20
2716.8004
  0
VERTEX
  5
2b7
  8
Layer_0
  10
5658.7958
  20
2719.2581
  0
VERTEX
  5
2b8
  8
Layer_0
  10
5659.1622
  20
2721.7565
  0
VERTEX
  5
2b9
  8
Layer_0
  10
5659.5212
  20
2724.2949
  0
VERTEX
  5
2ba
  8
Layer_0
  10
5659.8725
  20
2726.8723
  0
VERTEX
  5
2bb
  8
Layer_0
  10
5660.2162
  20
2729.4879
  0
VERTEX
  5
2bc
  8
Layer_0
  10
5660.5524
  20
2732.1408
  0
VERTEX
  5
2bd
  8
Layer_0
  10
5660.8808
  20
2734.8302
  0
VERTEX
  5
2be
  8
Layer_0
  10
5661.2016
  20
2737.5552
  0
VERTEX
  5
2bf
  8
Layer_0
  10
5661.5146
  20
2740.315
  0
VERTEX
  5
2c0
  8
Layer_0
  10
5661.82
  20
2743.1086
  0
VERTEX
  5
2c1
  8
Layer_0
  10
5662.1175
  20
2745.9353
  0
VERTEX
  5
2c2
  8
Layer_0
  10
5662.4072
  20
2748.7941
  0
VERTEX
  5
2c3
  8
Layer_0
  10
5662.6891
  20
2751.6842
  0
VERTEX
  5
2c4
  8
Layer_0
  10
5662.9631
  20
2754.6047
  0
VERTEX
  5
2c5
  8
Layer_0
  10
5663.2293
  20
2757.5548
  0
VERTEX
  5
2c6
  8
Layer_0
  10
5663.4875
  20
2760.5336
  0
VERTEX
  5
2c7
  8
Layer_0
  10
5663.7377
  20
2763.5402
  0
VERTEX
  5
2c8
  8
Layer_0
  10
5663.98
  20
2766.5738
  0
VERTEX
  5
2c9
  8
Layer_0
  10
5664.2142
  20
2769.6335
  0
VERTEX
  5
2ca
  8
Layer_0
  10
5664.4404
  20
2772.7185
  0
VERTEX
  5
2cb
  8
Layer_0
  10
5664.8686
  20
2778.9608
  0
VERTEX
  5
2cc
  8
Layer_0
  10
5665.2641
  20
2785.2937
  0
VERTEX
  5
2cd
  8
Layer_0
  10
5665.627
  20
2791.7104
  0
VERTEX
  5
2ce
  8
Layer_0
  10
5665.9567
  20
2798.2039
  0
VERTEX
  5
2cf
  8
Layer_0
  10
5666.2532
  20
2804.7674
  0
VERTEX
  5
2d0
  8
Layer_0
  10
5666.5162
  20
2811.3939
  0
VERTEX
  5
2d1
  8
Layer_0
  10
5666.7455
  20
2818.0766
  0
VERTEX
  5
2d2
  8
Layer_0
  10
5666.9408
  20
2824.8085
  0
VERTEX
  5
2d3
  8
Layer_0
  10
5667.1018
  20
2831.5827
  0
VERTEX
  5
2d4
  8
Layer_0
  10
5667.2284
  20
2838.3923
  0
VERTEX
  5
2d5
  8
Layer_0
  10
5667.3202
  20
2845.2305
  0
VERTEX
  5
2d6
  8
Layer_0
  10
5667.3772
  20
2852.0904
  0
VERTEX
  5
2d7
  8
Layer_0
  10
5667.3989
  20
2858.9649
  0
VERTEX
  5
2d8
  8
Layer_0
  10
5667.3852
  20
2865.8473
  0
VERTEX
  5
2d9
  8
Layer_0
  10
5667.3358
  20
2872.7306
  0
VERTEX
  5
2da
  8
Layer_0
  10
5667.2506
  20
2879.6079
  0
VERTEX
  5
2db
  8
Layer_0
  10
5667.1291
  20
2886.4723
  0
VERTEX
  5
2dc
  8
Layer_0
  10
5666.9713
  20
2893.3169
  0
VERTEX
  5
2dd
  8
Layer_0
  10
5666.7769
  20
2900.1349
  0
VERTEX
  5
2de
  8
Layer_0
  10
5666.5456
  20
2906.9192
  0
VERTEX
  5
2df
  8
Layer_0
  10
5666.2772
  20
2913.6631
  0
VERTEX
  5
2e0
  8
Layer_0
  10
5665.9714
  20
2920.3595
  0
VERTEX
  5
2e1
  8
Layer_0
  10
5665.628
  20
2927.0017
  0
VERTEX
  5
2e2
  8
Layer_0
  10
5665.2469
  20
2933.5826
  0
VERTEX
  5
2e3
  8
Layer_0
  10
5664.8276
  20
2940.0955
  0
VERTEX
  5
2e4
  8
Layer_0
  10
5664.37
  20
2946.5333
  0
VERTEX
  5
2e5
  8
Layer_0
  10
5663.8739
  20
2952.8892
  0
VERTEX
  5
2e6
  8
Layer_0
  10
5663.339
  20
2959.1563
  0
VERTEX
  5
2e7
  8
Layer_0
  10
5663.0569
  20
2962.2544
  0
VERTEX
  5
2e8
  8
Layer_0
  10
5662.7651
  20
2965.3277
  0
VERTEX
  5
2e9
  8
Layer_0
  10
5662.4634
  20
2968.3753
  0
VERTEX
  5
2ea
  8
Layer_0
  10
5662.1519
  20
2971.3965
  0
VERTEX
  5
2eb
  8
Layer_0
  10
5661.8305
  20
2974.3902
  0
VERTEX
  5
2ec
  8
Layer_0
  10
5661.4991
  20
2977.3557
  0
VERTEX
  5
2ed
  8
Layer_0
  10
5661.1579
  20
2980.2921
  0
VERTEX
  5
2ee
  8
Layer_0
  10
5660.8067
  20
2983.1985
  0
VERTEX
  5
2ef
  8
Layer_0
  10
5660.4455
  20
2986.0741
  0
VERTEX
  5
2f0
  8
Layer_0
  10
5660.0742
  20
2988.918
  0
VERTEX
  5
2f1
  8
Layer_0
  10
5659.6929
  20
2991.7293
  0
VERTEX
  5
2f2
  8
Layer_0
  10
5659.3015
  20
2994.5073
  0
VERTEX
  5
2f3
  8
Layer_0
  10
5658.9
  20
2997.2509
  0
VERTEX
  5
2f4
  8
Layer_0
  10
5658.4884
  20
2999.9594
  0
VERTEX
  5
2f5
  8
Layer_0
  10
5658.0665
  20
3002.6319
  0
VERTEX
  5
2f6
  8
Layer_0
  10
5657.6345
  20
3005.2675
  0
VERTEX
  5
2f7
  8
Layer_0
  10
5657.1922
  20
3007.8653
  0
VERTEX
  5
2f8
  8
Layer_0
  10
5656.7397
  20
3010.4246
  0
VERTEX
  5
2f9
  8
Layer_0
  10
5656.2768
  20
3012.9444
  0
VERTEX
  5
2fa
  8
Layer_0
  10
5655.8037
  20
3015.4239
  0
VERTEX
  5
2fb
  8
Layer_0
  10
5655.3201
  20
3017.8622
  0
VERTEX
  5
2fc
  8
Layer_0
  10
5654.8262
  20
3020.2585
  0
VERTEX
  5
2fd
  8
Layer_0
  10
5654.3219
  20
3022.6118
  0
VERTEX
  5
2fe
  8
Layer_0
  10
5653.8071
  20
3024.9214
  0
VERTEX
  5
2ff
  8
Layer_0
  10
5653.2818
  20
3027.1863
  0
VERTEX
  5
300
  8
Layer_0
  10
5652.7461
  20
3029.4057
  0
VERTEX
  5
301
  8
Layer_0
  10
5652.1997
  20
3031.5788
  0
VERTEX
  5
302
  8
Layer_0
  10
5651.6429
  20
3033.7047
  0
VERTEX
  5
303
  8
Layer_0
  10
5651.0754
  20
3035.7824
  0
VERTEX
  5
304
  8
Layer_0
  10
5650.4973
  20
3037.8112
  0
VERTEX
  5
305
  8
Layer_0
  10
5649.9085
  20
3039.7902
  0
VERTEX
  5
306
  8
Layer_0
  10
5649.3091
  20
3041.7185
  0
VERTEX
  5
307
  8
Layer_0
  10
5627.7988
  20
3041.7185
  42
0.002427113
  0
VERTEX
  5
308
  8
Layer_0
  10
5627.6475
  20
3041.7178
  0
VERTEX
  5
309
  8
Layer_0
  10
5607.7939
  20
3041.718
  0
VERTEX
  5
30a
  8
Layer_0
  10
5607.7939
  20
3022.3171
  0
VERTEX
  5
30b
  8
Layer_0
  10
5610.2988
  20
3022.3171
  0
SEQEND
  0
POLYLINE
  5
30d
  8
Layer_0
  62
7
  70
1
  66
1
  10
0
  20
0
  30
0
  0
VERTEX
  5
30d
  8
Layer_0
  10
5248.8315
  20
2377.6841
  0
VERTEX
  5
30e
  8
Layer_0
  10
5303.7417
  20
2639.3752
  0
VERTEX
  5
30f
  8
Layer_0
  10
5303.9239
  20
2640.7664
  0
VERTEX
  5
310
  8
Layer_0
  10
5304.1173
  20
2642.1891
  0
VERTEX
  5
311
  8
Layer_0
  10
5304.3203
  20
2643.6418
  0
VERTEX
  5
312
  8
Layer_0
  10
5304.531
  20
2645.1229
  0
VERTEX
  5
313
  8
Layer_0
  10
5304.9687
  20
2648.1641
  0
VERTEX
  5
314
  8
Layer_0
  10
5305.4163
  20
2651.3003
  0
VERTEX
  5
315
  8
Layer_0
  10
5305.8596
  20
2654.519
  0
VERTEX
  5
316
  8
Layer_0
  10
5306.2847
  20
2657.8076
  0
VERTEX
  5
317
  8
Layer_0
  10
5306.6775
  20
2661.1537
  0
VERTEX
  5
318
  8
Layer_0
  10
5307.0238
  20
2664.5448
  0
VERTEX
  5
319
  8
Layer_0
  10
5307.3096
  20
2667.9684
  0
VERTEX
  5
31a
  8
Layer_0
  10
5307.5209
  20
2671.4121
  0
VERTEX
  5
31b
  8
Layer_0
  10
5307.5941
  20
2673.1375
  0
VERTEX
  5
31c
  8
Layer_0
  10
5307.6434
  20
2674.8632
  0
VERTEX
  5
31d
  8
Layer_0
  10
5307.667
  20
2676.5877
  0
VERTEX
  5
31e
  8
Layer_0
  10
5307.6632
  20
2678.3094
  0
VERTEX
  5
31f
  8
Layer_0
  10
5307.6302
  20
2680.0268
  0
VERTEX
  5
320
  8
Layer_0
  10
5307.5662
  20
2681.7382
  0
VERTEX
  5
321
  8
Layer_0
  10
5307.4695
  20
2683.4421
  0
VERTEX
  5
322
  8
Layer_0
  10
5307.3383
  20
2685.137
  0
VERTEX
  5
323
  8
Layer_0
  10
5307.1708
  20
2686.8212
  0
VERTEX
  5
324
  8
Layer_0
  10
5306.9653
  20
2688.4933
  0
VERTEX
  5
325
  8
Layer_0
  10
5306.7201
  20
2690.1517
  0
VERTEX
  5
326
  8
Layer_0
  10
5306.4333
  20
2691.7948
  0
VERTEX
  5
327
  8
Layer_0
  10
5306.1033
  20
2693.421
  0
VERTEX
  5
328
  8
Layer_0
  10
5305.7282
  20
2695.0288
  0
VERTEX
  5
329
  8
Layer_0
  10
5305.3063
  20
2696.6166
  0
VERTEX
  5
32a
  8
Layer_0
  10
5304.8358
  20
2698.1829
  0
VERTEX
  5
32b
  8
Layer_0
  10
5304.315
  20
2699.7261
  0
VERTEX
  5
32c
  8
Layer_0
  10
5303.7422
  20
2701.2446
  0
VERTEX
  5
32d
  8
Layer_0
  10
5303.1154
  20
2702.7369
  0
VERTEX
  5
32e
  8
Layer_0
  10
5302.4331
  20
2704.2015
  0
VERTEX
  5
32f
  8
Layer_0
  10
5301.6934
  20
2705.6367
  0
VERTEX
  5
330
  8
Layer_0
  10
5300.8946
  20
2707.0409
  0
VERTEX
  5
331
  8
Layer_0
  10
5300.0348
  20
2708.4127
  0
VERTEX
  5
332
  8
Layer_0
  10
5299.1125
  20
2709.7505
  0
VERTEX
  5
333
  8
Layer_0
  10
5298.1257
  20
2711.0527
  0
VERTEX
  5
334
  8
Layer_0
  10
5297.0728
  20
2712.3178
  0
VERTEX
  5
335
  8
Layer_0
  10
5295.9519
  20
2713.5441
  0
VERTEX
  5
336
  8
Layer_0
  10
5294.7613
  20
2714.7302
  0
VERTEX
  5
337
  8
Layer_0
  10
5293.4993
  20
2715.8744
  0
VERTEX
  5
338
  8
Layer_0
  10
5292.1641
  20
2716.9752
  0
VERTEX
  5
339
  8
Layer_0
  10
5290.7539
  20
2718.0311
  0
VERTEX
  5
33a
  8
Layer_0
  10
5289.267
  20
2719.0405
  0
VERTEX
  5
33b
  8
Layer_0
  10
5287.7017
  20
2720.0017
  0
VERTEX
  5
33c
  8
Layer_0
  10
5286.056
  20
2720.9134
  0
VERTEX
  5
33d
  8
Layer_0
  10
5284.3284
  20
2721.7738
  0
VERTEX
  5
33e
  8
Layer_0
  10
5282.517
  20
2722.5815
  0
VERTEX
  5
33f
  8
Layer_0
  10
5281.5793
  20
2722.965
  0
VERTEX
  5
340
  8
Layer_0
  10
5280.62
  20
2723.3348
  0
VERTEX
  5
341
  8
Layer_0
  10
5279.6389
  20
2723.6906
  0
VERTEX
  5
342
  8
Layer_0
  10
5278.6358
  20
2724.0323
  0
VERTEX
  5
343
  8
Layer_0
  10
5277.6104
  20
2724.3596
  0
VERTEX
  5
344
  8
Layer_0
  10
5276.5625
  20
2724.6723
  0
VERTEX
  5
345
  8
Layer_0
  10
5275.4919
  20
2724.9703
  0
VERTEX
  5
346
  8
Layer_0
  10
5274.3984
  20
2725.2533
  0
VERTEX
  5
347
  8
Layer_0
  10
5273.2818
  20
2725.5212
  0
VERTEX
  5
348
  8
Layer_0
  10
5272.1418
  20
2725.7738
  0
VERTEX
  5
349
  8
Layer_0
  10
5270.9782
  20
2726.0108
  0
VERTEX
  5
34a
  8
Layer_0
  10
5269.7908
  20
2726.2321
  0
VERTEX
  5
34b
  8
Layer_0
  10
5268.5794
  20
2726.4374
  0
VERTEX
  5
34c
  8
Layer_0
  10
5267.3437
  20
2726.6267
  0
VERTEX
  5
34d
  8
Layer_0
  10
5266.0836
  20
2726.7996
  0
VERTEX
  5
34e
  8
Layer_0
  10
5264.7988
  20
2726.9561
  42
-0.33581689
  0
VERTEX
  5
34f
  8
Layer_0
  10
5251.7002
  20
2739.448
  0
VERTEX
  5
350
  8
Layer_0
  10
5248.75
  20
2757.5894
  0
VERTEX
  5
351
  8
Layer_0
  10
5418.75
  20
2757.5894
  0
VERTEX
  5
352
  8
Layer_0
  10
5418.0181
  20
2739.9099
  42
-0.30630783
  0
VERTEX
  5
353
  8
Layer_0
  10
5408.0439
  20
2726.395
  0
VERTEX
  5
354
  8
Layer_0
  10
5407.0977
  20
2726.0341
  0
VERTEX
  5
355
  8
Layer_0
  10
5406.1582
  20
2725.6321
  0
VERTEX
  5
356
  8
Layer_0
  10
5405.2256
  20
2725.1897
  0
VERTEX
  5
357
  8
Layer_0
  10
5404.3001
  20
2724.7079
  0
VERTEX
  5
358
  8
Layer_0
  10
5403.3819
  20
2724.1874
  0
VERTEX
  5
359
  8
Layer_0
  10
5402.4711
  20
2723.6292
  0
VERTEX
  5
35a
  8
Layer_0
  10
5401.5679
  20
2723.0341
  0
VERTEX
  5
35b
  8
Layer_0
  10
5400.6726
  20
2722.4029
  0
VERTEX
  5
35c
  8
Layer_0
  10
5399.7853
  20
2721.7365
  0
VERTEX
  5
35d
  8
Layer_0
  10
5398.9061
  20
2721.0357
  0
VERTEX
  5
35e
  8
Layer_0
  10
5398.0352
  20
2720.3015
  0
VERTEX
  5
35f
  8
Layer_0
  10
5397.1729
  20
2719.5346
  0
VERTEX
  5
360
  8
Layer_0
  10
5396.3193
  20
2718.7358
  0
VERTEX
  5
361
  8
Layer_0
  10
5395.4746
  20
2717.9062
  0
VERTEX
  5
362
  8
Layer_0
  10
5394.6389
  20
2717.0464
  0
VERTEX
  5
363
  8
Layer_0
  10
5393.8124
  20
2716.1574
  0
VERTEX
  5
364
  8
Layer_0
  10
5392.9954
  20
2715.2401
  0
VERTEX
  5
365
  8
Layer_0
  10
5392.1879
  20
2714.2952
  0
VERTEX
  5
366
  8
Layer_0
  10
5391.3903
  20
2713.3236
  0
VERTEX
  5
367
  8
Layer_0
  10
5390.6025
  20
2712.3261
  0
VERTEX
  5
368
  8
Layer_0
  10
5389.8249
  20
2711.3037
  0
VERTEX
  5
369
  8
Layer_0
  10
5389.0576
  20
2710.2572
  0
VERTEX
  5
36a
  8
Layer_0
  10
5388.3008
  20
2709.1874
  0
VERTEX
  5
36b
  8
Layer_0
  10
5387.5547
  20
2708.0951
  0
VERTEX
  5
36c
  8
Layer_0
  10
5386.095
  20
2705.8468
  0
VERTEX
  5
36d
  8
Layer_0
  10
5384.6802
  20
2703.519
  0
VERTEX
  5
36e
  8
Layer_0
  10
5383.3115
  20
2701.1185
  0
VERTEX
  5
36f
  8
Layer_0
  10
5381.9905
  20
2698.6523
  0
VERTEX
  5
370
  8
Layer_0
  10
5380.7186
  20
2696.127
  0
VERTEX
  5
371
  8
Layer_0
  10
5379.4971
  20
2693.5495
  0
VERTEX
  5
372
  8
Layer_0
  10
5378.3276
  20
2690.9267
  0
VERTEX
  5
373
  8
Layer_0
  10
5377.2113
  20
2688.2653
  0
VERTEX
  5
374
  8
Layer_0
  10
5376.1499
  20
2685.5722
  0
VERTEX
  5
375
  8
Layer_0
  10
5375.1446
  20
2682.8542
  0
VERTEX
  5
376
  8
Layer_0
  10
5374.1969
  20
2680.1181
  0
VERTEX
  5
377
  8
Layer_0
  10
5373.3083
  20
2677.3707
  0
VERTEX
  5
378
  8
Layer_0
  10
5372.4801
  20
2674.6188
  0
VERTEX
  5
379
  8
Layer_0
  10
5371.7138
  20
2671.8693
  0
VERTEX
  5
37a
  8
Layer_0
  10
5371.0108
  20
2669.129
  0
VERTEX
  5
37b
  8
Layer_0
  10
5370.3726
  20
2666.4047
  0
VERTEX
  5
37c
  8
Layer_0
  10
5369.8005
  20
2663.7031
  0
VERTEX
  5
37d
  8
Layer_0
  10
5369.2961
  20
2661.0313
  0
VERTEX
  5
37e
  8
Layer_0
  10
5368.8606
  20
2658.3959
  0
VERTEX
  5
37f
  8
Layer_0
  10
5368.4956
  20
2655.8037
  0
VERTEX
  5
380
  8
Layer_0
  10
5307.5796
  20
2365.4897
  0
VERTEX
  5
381
  8
Layer_0
  10
5248.8315
  20
2365.4897
  0
SEQEND
  0
CIRCLE
  5
383
  8
Layer_2
  62
1
  10
5300.5386
  20
2475.0879
  30
0
  40
5
  0
POLYLINE
  5
383
  8
Layer_0
  62
7
  70
1
  66
1
  10
0
  20
0
  30
0
  0
VERTEX
  5
383
  8
Layer_0
  10
5595.4668
  20
2366.0039
  0
VERTEX
  5
384
  8
Layer_0
  10
5505.915
  20
2659.7712
  0
VERTEX
  5
385
  8
Layer_0
  10
5505.236
  20
2662.1712
  0
VERTEX
  5
386
  8
Layer_0
  10
5504.5628
  20
2664.5153
  0
VERTEX
  5
387
  8
Layer_0
  10
5503.8949
  20
2666.8041
  0
VERTEX
  5
388
  8
Layer_0
  10
5503.2318
  20
2669.0383
  0
VERTEX
  5
389
  8
Layer_0
  10
5502.5731
  20
2671.2185
  0
VERTEX
  5
38a
  8
Layer_0
  10
5501.9183
  20
2673.3453
  0
VERTEX
  5
38b
  8
Layer_0
  10
5501.2669
  20
2675.4194
  0
VERTEX
  5
38c
  8
Layer_0
  10
5500.6185
  20
2677.4415
  0
VERTEX
  5
38d
  8
Layer_0
  10
5499.9725
  20
2679.4122
  0
VERTEX
  5
38e
  8
Layer_0
  10
5499.3285
  20
2681.3321
  0
VERTEX
  5
38f
  8
Layer_0
  10
5498.6861
  20
2683.2018
  0
VERTEX
  5
390
  8
Layer_0
  10
5498.0448
  20
2685.0221
  0
VERTEX
  5
391
  8
Layer_0
  10
5497.404
  20
2686.7936
  0
VERTEX
  5
392
  8
Layer_0
  10
5496.7634
  20
2688.5169
  0
VERTEX
  5
393
  8
Layer_0
  10
5496.1224
  20
2690.1926
  0
VERTEX
  5
394
  8
Layer_0
  10
5495.4806
  20
2691.8214
  0
VERTEX
  5
395
  8
Layer_0
  10
5494.8376
  20
2693.404
  0
VERTEX
  5
396
  8
Layer_0
  10
5494.1927
  20
2694.9409
  0
VERTEX
  5
397
  8
Layer_0
  10
5493.5456
  20
2696.4329
  0
VERTEX
  5
398
  8
Layer_0
  10
5492.8959
  20
2697.8806
  0
VERTEX
  5
399
  8
Layer_0
  10
5492.2429
  20
2699.2846
  0
VERTEX
  5
39a
  8
Layer_0
  10
5491.5864
  20
2700.6456
  0
VERTEX
  5
39b
  8
Layer_0
  10
5490.9257
  20
2701.9641
  0
VERTEX
  5
39c
  8
Layer_0
  10
5490.2604
  20
2703.241
  0
VERTEX
  5
39d
  8
Layer_0
  10
5489.59
  20
2704.4767
  0
VERTEX
  5
39e
  8
Layer_0
  10
5488.9142
  20
2705.672
  0
VERTEX
  5
39f
  8
Layer_0
  10
5488.2323
  20
2706.8275
  0
VERTEX
  5
3a0
  8
Layer_0
  10
5487.544
  20
2707.9438
  0
VERTEX
  5
3a1
  8
Layer_0
  10
5486.8487
  20
2709.0216
  0
VERTEX
  5
3a2
  8
Layer_0
  10
5486.146
  20
2710.0615
  0
VERTEX
  5
3a3
  8
Layer_0
  10
5485.4354
  20
2711.0642
  0
VERTEX
  5
3a4
  8
Layer_0
  10
5484.7165
  20
2712.0303
  0
VERTEX
  5
3a5
  8
Layer_0
  10
5483.9887
  20
2712.9604
  0
VERTEX
  5
3a6
  8
Layer_0
  10
5483.2517
  20
2713.8553
  0
VERTEX
  5
3a7
  8
Layer_0
  10
5482.5049
  20
2714.7155
  0
VERTEX
  5
3a8
  8
Layer_0
  10
5481.7478
  20
2715.5417
  0
VERTEX
  5
3a9
  8
Layer_0
  10
5480.9801
  20
2716.3346
  0
VERTEX
  5
3aa
  8
Layer_0
  10
5480.2011
  20
2717.0947
  0
VERTEX
  5
3ab
  8
Layer_0
  10
5479.4105
  20
2717.8227
  0
VERTEX
  5
3ac
  8
Layer_0
  10
5478.6078
  20
2718.5194
  0
VERTEX
  5
3ad
  8
Layer_0
  10
5477.7925
  20
2719.1852
  0
VERTEX
  5
3ae
  8
Layer_0
  10
5476.9641
  20
2719.8209
  0
VERTEX
  5
3af
  8
Layer_0
  10
5476.1222
  20
2720.4271
  0
VERTEX
  5
3b0
  8
Layer_0
  10
5475.2663
  20
2721.0045
  0
VERTEX
  5
3b1
  8
Layer_0
  10
5474.3959
  20
2721.5536
  0
VERTEX
  5
3b2
  8
Layer_0
  10
5473.5105
  20
2722.0752
  0
VERTEX
  5
3b3
  8
Layer_0
  10
5472.6098
  20
2722.5699
  0
VERTEX
  5
3b4
  8
Layer_0
  10
5471.6931
  20
2723.0383
  0
VERTEX
  5
3b5
  8
Layer_0
  10
5470.7601
  20
2723.4811
  0
VERTEX
  5
3b6
  8
Layer_0
  10
5469.8102
  20
2723.8988
  0
VERTEX
  5
3b7
  8
Layer_0
  10
5468.8431
  20
2724.2923
  0
VERTEX
  5
3b8
  8
Layer_0
  10
5467.8581
  20
2724.6621
  0
VERTEX
  5
3b9
  8
Layer_0
  10
5466.855
  20
2725.0088
  0
VERTEX
  5
3ba
  8
Layer_0
  10
5465.8331
  20
2725.3331
  0
VERTEX
  5
3bb
  8
Layer_0
  10
5464.792
  20
2725.6356
  0
VERTEX
  5
3bc
  8
Layer_0
  10
5463.7312
  20
2725.9171
  0
VERTEX
  5
3bd
  8
Layer_0
  10
5462.6503
  20
2726.1781
  0
VERTEX
  5
3be
  8
Layer_0
  10
5461.5489
  20
2726.4192
  0
VERTEX
  5
3bf
  8
Layer_0
  10
5460.4263
  20
2726.6412
  0
VERTEX
  5
3c0
  8
Layer_0
  10
5459.2822
  20
2726.8446
  0
VERTEX
  5
3c1
  8
Layer_0
  10
5458.1161
  20
2727.0301
  0
VERTEX
  5
3c2
  8
Layer_0
  10
5456.9275
  20
2727.1984
  0
VERTEX
  5
3c3
  8
Layer_0
  10
5455.7159
  20
2727.3501
  0
VERTEX
  5
3c4
  8
Layer_0
  10
5454.481
  20
2727.4858
  42
-0.38322492
  0
VERTEX
  5
3c5
  8
Layer_0
  10
5441.0112
  20
2742.3276
  0
VERTEX
  5
3c6
  8
Layer_0
  10
5440.9307
  20
2758.1082
  0
VERTEX
  5
3c7
  8
Layer_0
  10
5565.2949
  20
2758.1047
  0
VERTEX
  5
3c8
  8
Layer_0
  10
5565.2939
  20
2728.105
  0
VERTEX
  5
3c9
  8
Layer_0
  10
5567.7939
  20
2728.105
  0
VERTEX
  5
3ca
  8
Layer_0
  10
5567.7949
  20
2758.1047
  0
VERTEX
  5
3cb
  8
Layer_0
  10
5610.9307
  20
2758.1038
  0
VERTEX
  5
3cc
  8
Layer_0
  10
5610.772
  20
2742.0806
  42
-0.37696528
  0
VERTEX
  5
3cd
  8
Layer_0
  10
5597.5562
  20
2727.3369
  0
VERTEX
  5
3ce
  8
Layer_0
  10
5595.2564
  20
2727.0195
  0
VERTEX
  5
3cf
  8
Layer_0
  10
5592.9628
  20
2726.6307
  0
VERTEX
  5
3d0
  8
Layer_0
  10
5590.6843
  20
2726.1639
  0
VERTEX
  5
3d1
  8
Layer_0
  10
5588.4301
  20
2725.6127
  0
VERTEX
  5
3d2
  8
Layer_0
  10
5587.3148
  20
2725.3034
  0
VERTEX
  5
3d3
  8
Layer_0
  10
5586.209
  20
2724.9705
  0
VERTEX
  5
3d4
  8
Layer_0
  10
5585.1138
  20
2724.6133
  0
VERTEX
  5
3d5
  8
Layer_0
  10
5584.0303
  20
2724.2308
  0
VERTEX
  5
3d6
  8
Layer_0
  10
5582.9596
  20
2723.8223
  0
VERTEX
  5
3d7
  8
Layer_0
  10
5581.9028
  20
2723.387
  0
VERTEX
  5
3d8
  8
Layer_0
  10
5580.8612
  20
2722.9241
  0
VERTEX
  5
3d9
  8
Layer_0
  10
5579.8357
  20
2722.4326
  0
VERTEX
  5
3da
  8
Layer_0
  10
5578.8276
  20
2721.9119
  0
VERTEX
  5
3db
  8
Layer_0
  10
5577.838
  20
2721.3611
  0
VERTEX
  5
3dc
  8
Layer_0
  10
5576.8679
  20
2720.7794
  0
VERTEX
  5
3dd
  8
Layer_0
  10
5575.9186
  20
2720.1659
  0
VERTEX
  5
3de
  8
Layer_0
  10
5574.9912
  20
2719.5199
  0
VERTEX
  5
3df
  8
Layer_0
  10
5574.0867
  20
2718.8405
  0
VERTEX
  5
3e0
  8
Layer_0
  10
5573.2064
  20
2718.1269
  0
VERTEX
  5
3e1
  8
Layer_0
  10
5572.3513
  20
2717.3783
  0
VERTEX
  5
3e2
  8
Layer_0
  10
5571.5226
  20
2716.5939
  0
VERTEX
  5
3e3
  8
Layer_0
  10
5570.7214
  20
2715.7729
  0
VERTEX
  5
3e4
  8
Layer_0
  10
5569.9488
  20
2714.9144
  0
VERTEX
  5
3e5
  8
Layer_0
  10
5569.206
  20
2714.0177
  0
VERTEX
  5
3e6
  8
Layer_0
  10
5568.4941
  20
2713.0818
  0
VERTEX
  5
3e7
  8
Layer_0
  10
5567.8142
  20
2712.1061
  0
VERTEX
  5
3e8
  8
Layer_0
  10
5567.1675
  20
2711.0896
  0
VERTEX
  5
3e9
  8
Layer_0
  10
5566.5551
  20
2710.0316
  0
VERTEX
  5
3ea
  8
Layer_0
  10
5565.978
  20
2708.9313
  0
VERTEX
  5
3eb
  8
Layer_0
  10
5565.4375
  20
2707.7878
  0
VERTEX
  5
3ec
  8
Layer_0
  10
5564.9347
  20
2706.6003
  0
VERTEX
  5
3ed
  8
Layer_0
  10
5564.4707
  20
2705.368
  0
VERTEX
  5
3ee
  8
Layer_0
  10
5564.0466
  20
2704.09
  0
VERTEX
  5
3ef
  8
Layer_0
  10
5563.6635
  20
2702.7656
  0
VERTEX
  5
3f0
  8
Layer_0
  10
5563.3227
  20
2701.394
  0
VERTEX
  5
3f1
  8
Layer_0
  10
5563.0251
  20
2699.9743
  0
VERTEX
  5
3f2
  8
Layer_0
  10
5562.772
  20
2698.5057
  0
VERTEX
  5
3f3
  8
Layer_0
  10
5562.5645
  20
2696.9874
  0
VERTEX
  5
3f4
  8
Layer_0
  10
5562.4037
  20
2695.4186
  0
VERTEX
  5
3f5
  8
Layer_0
  10
5562.2907
  20
2693.7985
  0
VERTEX
  5
3f6
  8
Layer_0
  10
5562.2267
  20
2692.1262
  0
VERTEX
  5
3f7
  8
Layer_0
  10
5562.2128
  20
2690.4009
  0
VERTEX
  5
3f8
  8
Layer_0
  10
5562.2501
  20
2688.6218
  0
VERTEX
  5
3f9
  8
Layer_0
  10
5562.3398
  20
2686.7881
  0
VERTEX
  5
3fa
  8
Layer_0
  10
5562.4829
  20
2684.899
  0
VERTEX
  5
3fb
  8
Layer_0
  10
5562.6806
  20
2682.9537
  0
VERTEX
  5
3fc
  8
Layer_0
  10
5562.9341
  20
2680.9513
  0
VERTEX
  5
3fd
  8
Layer_0
  10
5563.2445
  20
2678.891
  0
VERTEX
  5
3fe
  8
Layer_0
  10
5563.6128
  20
2676.772
  0
VERTEX
  5
3ff
  8
Layer_0
  10
5564.0403
  20
2674.5936
  0
VERTEX
  5
400
  8
Layer_0
  10
5564.528
  20
2672.3548
  0
VERTEX
  5
401
  8
Layer_0
  10
5565.0771
  20
2670.0548
  0
VERTEX
  5
402
  8
Layer_0
  10
5565.6887
  20
2667.6929
  0
VERTEX
  5
403
  8
Layer_0
  10
5566.364
  20
2665.2683
  0
VERTEX
  5
404
  8
Layer_0
  10
5567.1041
  20
2662.78
  0
VERTEX
  5
405
  8
Layer_0
  10
5567.91
  20
2660.2273
  0
VERTEX
  5
406
  8
Layer_0
  10
5568.783
  20
2657.6094
  0
VERTEX
  5
407
  8
Layer_0
  10
5569.7241
  20
2654.9255
  0
VERTEX
  5
408
  8
Layer_0
  10
5570.7346
  20
2652.1747
  0
VERTEX
  5
409
  8
Layer_0
  10
5571.8154
  20
2649.3562
  0
VERTEX
  5
40a
  8
Layer_0
  10
5654.4321
  20
2378.3398
  0
VERTEX
  5
40b
  8
Layer_0
  10
5654.4316
  20
2366.0024
  0
SEQEND
  0
CIRCLE
  5
40d
  8
Layer_2
  62
1
  10
5601.4961
  20
2476.5916
  30
0
  40
5
  0
ENDSEC
  0
EOF
